{"title":"The.Book.Of.Life.2014.3D.SBS.1080p.Audio.Latino.AlexHD","uid":11787557,"size":2385908449,"categoryP":"video","categoryS":"3d","magnet":"?xt=urn:btih:6f80a7d22cb42108f1d1a20111ca44cb4a24037b&amp;dn=The.Book.Of.Life.2014.3D.SBS.1080p.Audio.Latino.AlexHD&amp;tr=udp%3A%2F%2Ftracker.openbittorrent.com%3A80&amp;tr=udp%3A%2F%2Fopen.demonii.com%3A1337&amp;tr=udp%3A%2F%2Ftracker.coppersurfer.tk%3A6969&amp;tr=udp%3A%2F%2Fexodus.desync.com%3A6969","seeders":9,"leechers":3,"uploader":"AlexHD","files":1,"time":1427762603,"description":"General\nComplete name         \t\t: The.Book.Of.Life.2014.3D.SBS.1080p.Audio.Latino.AlexHD.mp4\nFormat                           : MPEG-4\nFormat profile                \t : Base Media / Version 2\nCodec ID                         : mp42\nFile size                        : 2.22 GiB\nDuration                         : 1h 27mn\nOverall bit rate                 : 3 630 Kbps\n\nVideo\nID                               : 1\nFormat                           : AVC\nFormat/Info                      : Advanced Video Codec\nFormat profile                   : &lt;a class=&quot;__cf_email__&quot; href=&quot;/cdn-cgi/l/email-protection&quot; data-cfemail=&quot;1456756771787d7a715458203a24&quot;&gt;[email&amp;#160;protected]&lt;/a&gt;&lt;script cf-hash='f9e31' type=&quot;text/javascript&quot;&gt;\n/* &lt;![CDATA[ */!function(){try{var t=&quot;currentScript&quot;in document?document.currentScript:function(){for(var t=document.getElementsByTagName(&quot;script&quot;),e=t.length;e--;)if(t[e].getAttribute(&quot;cf-hash&quot;))return t[e]}();if(t&amp;&amp;t.previousSibling){var e,r,n,i,c=t.previousSibling,a=c.getAttribute(&quot;data-cfemail&quot;);if(a){for(e=&quot;&quot;,r=parseInt(a.substr(0,2),16),n=2;a.length-n;n+=2)i=parseInt(a.substr(n,2),16)^r,e+=String.fromCharCode(i);e=document.createTextNode(e),c.parentNode.replaceChild(e,c)}}}catch(u){}}();/* ]]&gt; */&lt;/script&gt;\nFormat settings, CABAC           \t: No\nFormat settings, ReFrames\t : 3 frames\nCodec ID                         : avc1\nCodec ID/Info                    : Advanced Video Coding\nDuration                         : 1h 27mn\nBit rate mode                    : Variable\nBit rate                         : 3 574 Kbps\nWidth                            : 1 920 pixels\nHeight                           : 1 080 pixels\nDisplay aspect ratio           \t : 16:9\nFrame rate mode                  : Variable\nFrame rate                       : 24.000 fps\nMinimum frame rate               : 24.000 fps\nMaximum frame rate               : 24.024 fps\nColor space                      : YUV\nChroma subsampling               : 4:2:0\nBit depth                        : 8 bits\nScan type                        : Progressive\nBits/(Pixel*Frame)               : 0.072\nStream size                      : 2.19 GiB (98%)\n\nAudio\nID                               : 2\nFormat                           : AAC\nFormat/Info                      : Advanced Audio Codec\nFormat profile                   : LC\nCodec ID                         : 40\nDuration                         : 1h 27mn\nBit rate mode                    : Variable\nBit rate                         : 53.7 Kbps\nMaximum bit rate                 : 159 Kbps\nChannel(s)                       : 2 channels\nChannel positions                : Front: L R\nSampling rate                    : 44.1 KHz\nCompression mode                 : Lossy\nStream size                      : 33.6 MiB (1%)\nLanguage                         : Latin","torrent":{"xt":"urn:btih:6f80a7d22cb42108f1d1a20111ca44cb4a24037b","amp;dn":"The.Book.Of.Life.2014.3D.SBS.1080p.Audio.Latino.AlexHD","amp;tr":["udp%3A%2F%2Ftracker.openbittorrent.com%3A80","udp%3A%2F%2Fopen.demonii.com%3A1337","udp%3A%2F%2Ftracker.coppersurfer.tk%3A6969","udp%3A%2F%2Fexodus.desync.com%3A6969"],"infoHash":"6f80a7d22cb42108f1d1a20111ca44cb4a24037b","infoHashBuffer":{"type":"Buffer","data":[111,128,167,210,44,180,33,8,241,209,162,1,17,202,68,203,74,36,3,123]},"announce":[],"urlList":[]}}